<svg width="42" height="42" viewBox="0 0 42 42" fill="none" xmlns="http://www.w3.org/2000/svg">
<path d="M0 15.2C0 9.8795 0 7.21925 1.03544 5.18709C1.94624 3.39955 3.39955 1.94624 5.18709 1.03544C7.21925 0 9.8795 0 15.2 0H26.8C32.1205 0 34.7807 0 36.8129 1.03544C38.6004 1.94624 40.0538 3.39955 40.9646 5.18709C42 7.21925 42 9.8795 42 15.2V26.8C42 32.1205 42 34.7807 40.9646 36.8129C40.0538 38.6004 38.6004 40.0538 36.8129 40.9646C34.7807 42 32.1205 42 26.8 42H15.2C9.8795 42 7.21925 42 5.18709 40.9646C3.39955 40.0538 1.94624 38.6004 1.03544 36.8129C0 34.7807 0 32.1205 0 26.8V15.2Z" fill="#6200F2"/>
<path d="M10.1335 11.3H13.3335L15.3585 17.175L17.4085 11.3H20.5835L17.5335 19.375L19.7835 25.025L24.8085 11.25H28.5585L21.4585 29H18.4835L15.3585 21.55L12.2585 29H9.2835L2.2085 11.25H5.9085L10.9585 25.025L13.1585 19.375L10.1335 11.3ZM38.9519 25.975V29H26.6269V11.25H38.7269V14.275H30.0769V18.55H37.5519V21.35H30.0769V25.975H38.9519Z" fill="#6BFF69"/>
</svg>
